PathFileType	4	(X/Y/Z)	C:/Users/opensim2020/Desktop/walking_exp_matlab/subject03_walking07_straight_04.trc	
DataRate	CameraRate	NumFrames	NumMarkers	Units	OrigDataRate	OrigDataStartFrame	OrigNumFrames	
100.00	100.00	6	46	mm	100.00	2959	265	
Frame#	Time	LFHD			RFHD			LBHD			RBHD			C7			T10			CLAV			STRN			RBAK			LSHO			LUPA			LELB			LFRM			LWRA			LWRB			LFIN			RSHO			RUPA			RELB			RFRM			RWRA			RWRB			RFIN			LASI			RASI			LPSI			RPSI			LTHI			LKNE			LTIB			LANK			LHEE			LTOE			RTHI			RKNE			RTIB			RANK			RHEE			RTOE			*39			*40			*41			*42			*43			*44			*45			
		X1	Y1	Z1	X2	Y2	Z2	X3	Y3	Z3	X4	Y4	Z4	X5	Y5	Z5	X6	Y6	Z6	X7	Y7	Z7	X8	Y8	Z8	X9	Y9	Z9	X10	Y10	Z10	X11	Y11	Z11	X12	Y12	Z12	X13	Y13	Z13	X14	Y14	Z14	X15	Y15	Z15	X16	Y16	Z16	X17	Y17	Z17	X18	Y18	Z18	X19	Y19	Z19	X20	Y20	Z20	X21	Y21	Z21	X22	Y22	Z22	X23	Y23	Z23	X24	Y24	Z24	X25	Y25	Z25	X26	Y26	Z26	X27	Y27	Z27	X28	Y28	Z28	X29	Y29	Z29	X30	Y30	Z30	X31	Y31	Z31	X32	Y32	Z32	X33	Y33	Z33	X34	Y34	Z34	X35	Y35	Z35	X36	Y36	Z36	X37	Y37	Z37	X38	Y38	Z38	X39	Y39	Z39	X40	Y40	Z40	X41	Y41	Z41	X42	Y42	Z42	X43	Y43	Z43	X44	Y44	Z44	X45	Y45	Z45	X46	Y46	Z46	

1	0.000	-917.44086	1054.05957	1598.61523	-1049.69165	1058.28955	1611.96802	-920.04901	1185.13281	1563.55945	-1050.34509	1184.23572	1576.02393	-996.16980	1226.12671	1410.00378	-1009.23816	1276.86902	1098.61633	-990.07135	1109.14038	1325.83459	-987.92590	1074.83020	1158.79346	-1106.03638	1277.82666	1240.79468	-836.60358	1166.96936	1360.39514	-767.88983	1207.49731	1165.12415	-754.45239	1216.71387	1042.28137	-753.87567	1199.18799	913.56927	-784.55804	1183.15918	795.99609	-736.39789	1211.36096	800.92743	-744.70251	1195.37793	718.64221	-1150.04529	1137.53259	1357.98071	-1236.98975	1094.57947	1148.62671	-1254.42053	1050.91479	1046.23352	-1256.91150	991.32996	923.30707	-1219.28943	935.76202	842.65479	-1265.66492	959.08221	828.71600	-1255.16113	912.19049	771.89264	-885.88806	1118.86597	928.86646	-1123.56384	1110.00769	929.93439	-939.96991	1280.11560	947.59698	-1089.29565	1271.12207	964.43622	-837.40277	1103.77954	631.96185	-875.67950	1031.64050	470.06921	-876.20929	1036.78418	276.07874	-911.83606	999.24103	68.58817	-954.32037	1027.90063	27.51698	-921.55432	848.43555	58.46592	-1164.01453	1202.33801	640.74640	-1129.69727	1223.09778	461.71652	-1132.81396	1302.42407	286.04340	-1084.95081	1368.94226	78.62801	-1034.40564	1415.72827	51.42309	-1076.06677	1231.27075	30.28138	-960.38074	1132.95105	1670.82166																		 
2	0.010	-917.15881	1044.95850	1597.49060	-1049.43152	1049.16199	1610.89343	-919.83374	1175.93982	1562.24390	-1050.09888	1175.03210	1574.73242	-995.92926	1216.79724	1408.89160	-1008.43878	1267.86584	1097.48865	-989.82660	1099.82251	1324.50000	-987.76404	1065.70227	1157.52832	-1105.60303	1268.79944	1239.75012	-836.29376	1157.51587	1359.24573	-768.10638	1199.35559	1164.09021	-754.73395	1209.54395	1041.34827	-754.10059	1193.05383	912.36853	-784.80389	1177.92151	794.68628	-736.71942	1206.21606	799.87329	-745.20001	1191.14917	717.34143	-1149.67590	1128.18958	1356.63721	-1236.42517	1084.57300	1147.54175	-1253.72754	1040.66101	1045.28674	-1255.46301	979.97064	922.94031	-1217.21326	923.91968	843.04797	-1263.56885	946.75012	828.58234	-1252.57715	899.04175	772.64410	-885.66351	1109.35950	927.35706	-1123.40662	1101.54443	928.89374	-939.01141	1270.76147	946.15051	-1088.42566	1262.65063	963.21710	-837.21722	1097.16199	629.36011	-877.21332	1024.19800	468.13068	-875.91614	1022.14618	275.38544	-909.25586	975.49921	69.27425	-951.68835	1002.48212	26.75441	-918.52612	823.90802	63.69854	-1164.00830	1195.41663	640.08508	-1129.68201	1217.36719	461.12299	-1132.80310	1298.91785	286.30811	-1084.92114	1368.29248	79.73863	-1034.46082	1415.40735	53.08517	-1075.96838	1231.16907	30.15456	-959.63464	1123.97339	1669.03540																		 
3	0.020	-916.83771	1035.76855	1596.48022	-1049.11536	1039.97974	1609.87878	-919.60583	1166.69385	1561.01453	-1049.87317	1165.81763	1573.59131	-995.55109	1207.31824	1407.77588	-1007.60583	1258.77161	1096.46924	-989.52582	1090.41235	1323.33618	-987.48663	1056.51709	1156.25598	-1105.02698	1259.73499	1238.72083	-835.88556	1147.93372	1358.15723	-768.27252	1190.87842	1163.03149	-755.11090	1201.99866	1040.34680	-754.27216	1186.53662	911.19336	-785.06055	1172.34949	793.30994	-737.10724	1200.92896	798.79010	-745.65356	1186.84949	715.99237	-1149.32007	1118.82080	1355.35095	-1235.68982	1074.58215	1146.40515	-1252.99487	1030.51746	1044.14063	-1253.95557	968.98163	922.43146	-1214.98914	912.42938	843.16718	-1261.24915	934.79950	828.25787	-1250.09387	886.53589	773.28503	-885.31720	1099.69116	925.87714	-1123.27148	1093.00488	927.88678	-937.96436	1261.36548	944.89575	-1087.38062	1254.03992	962.00366	-836.87695	1090.37085	627.03467	-878.29193	1016.71558	466.25726	-875.60663	1008.32532	274.94913	-906.96484	953.94983	70.26900	-949.23560	979.15338	26.69110	-915.59430	801.32104	68.82347	-1163.89380	1188.27563	639.47241	-1129.69739	1211.40796	460.61823	-1132.56030	1295.25464	286.54834	-1085.04150	1367.58618	81.11713	-1034.60449	1415.04163	55.03112	-1075.98157	1231.02661	30.10553	-959.71692	1114.86804	1668.39685																		 
4	0.030	-916.51630	1026.58826	1595.53357	-1048.78369	1030.71521	1608.97363	-919.19220	1157.43091	1559.78369	-1049.57495	1156.53088	1572.51892	-995.09460	1197.86816	1406.75403	-1006.68903	1249.53320	1095.52502	-989.24677	1080.97314	1322.24915	-987.21729	1047.17517	1155.07117	-1104.28564	1250.63428	1237.73840	-835.44495	1138.25488	1357.16089	-768.39728	1182.17224	1162.05615	-755.47345	1193.95044	1039.36475	-754.57941	1179.83008	909.99738	-785.26105	1166.52271	791.96515	-737.49933	1195.36536	797.77002	-746.08899	1182.44910	714.77252	-1148.88525	1109.47522	1354.10156	-1234.83374	1064.69714	1145.32336	-1251.96729	1020.51318	1043.09863	-1252.32532	958.12537	921.81732	-1212.97192	901.25244	843.24542	-1259.24158	923.47552	827.88257	-1247.55627	874.51239	773.55090	-885.05750	1089.74207	924.58771	-1123.13672	1084.39844	926.91284	-936.72467	1251.76392	943.76471	-1086.23621	1245.32886	960.88220	-836.50220	1082.99048	625.00201	-879.71857	1009.50262	464.07245	-875.20227	995.34302	274.65536	-904.87695	934.35236	71.37827	-946.91687	958.11639	27.10891	-913.06744	780.88312	73.43134	-1163.74158	1180.97913	638.99640	-1129.71216	1205.21777	460.20795	-1132.88501	1291.44922	287.22946	-1085.35193	1366.65308	82.59380	-1034.81079	1414.51013	57.20152	-1075.99963	1230.88843	30.06832	-958.88708	1105.48181	1667.29016																		 
5	0.040	-916.07886	1017.20758	1594.70496	-1048.38379	1021.41235	1608.20227	-918.84741	1148.07788	1558.93958	-1049.19775	1147.17078	1571.59351	-994.54382	1188.29126	1405.81262	-1005.72772	1240.16357	1094.66479	-988.86694	1071.43616	1321.27209	-986.83655	1037.82788	1154.11670	-1103.45276	1241.46765	1236.82849	-834.93066	1128.41125	1356.31702	-768.47388	1173.19312	1161.13696	-755.90045	1185.55737	1038.42798	-754.94055	1172.63782	908.88611	-785.71582	1160.13733	790.64417	-737.96265	1189.40637	796.74359	-746.57019	1177.78430	713.58954	-1148.48022	1100.18860	1352.97986	-1233.84570	1055.00391	1144.24634	-1250.80054	1010.66589	1042.08545	-1250.68115	947.81641	921.09741	-1210.80493	890.50256	843.09100	-1257.01404	912.47113	827.28687	-1245.02148	863.06378	773.58429	-884.73822	1079.68945	923.39233	-1123.03210	1075.65662	926.04773	-935.45630	1242.01306	942.82062	-1084.99634	1236.45105	959.87402	-836.34656	1075.10718	623.33246	-880.22449	1002.04559	462.41428	-874.80078	983.46289	274.40515	-902.82642	917.28845	72.33237	-944.74548	939.81921	27.44761	-911.31750	763.01105	77.26401	-1163.66333	1173.53003	638.73853	-1129.81165	1198.91467	459.97629	-1133.02954	1287.48682	288.01392	-1085.71497	1365.62915	84.39219	-1035.16150	1413.94116	59.76300	-1076.14832	1230.65015	30.04671	-958.68079	1096.56335	1665.96472																		 
6	0.050	-915.71698	1007.83606	1594.00635	-1047.96704	1012.04932	1607.55652	-918.47180	1138.64038	1558.04163	-1048.75134	1137.72668	1570.75964	-993.96136	1178.73120	1405.06689	-1004.66150	1230.65002	1093.90369	-988.47021	1061.78674	1320.34729	-986.50592	1028.21179	1153.32410	-1102.51343	1232.25317	1236.02466	-834.32281	1118.45129	1355.56836	-768.47314	1163.81165	1160.25757	-756.23926	1176.80066	1037.55542	-755.22656	1165.19958	907.86316	-786.36853	1155.35303	789.34271	-738.36871	1183.47888	795.91022	-747.05157	1172.82483	712.55505	-1147.96863	1090.91260	1351.86340	-1232.83423	1045.46021	1143.19141	-1249.46497	1001.03601	1040.97961	-1248.88586	937.74890	920.25647	-1208.72156	880.14630	842.80719	-1254.81262	901.99384	826.64935	-1242.59021	852.19324	773.46759	-884.49005	1069.57471	922.48645	-1122.85229	1066.71924	925.27209	-934.12372	1232.14417	942.08508	-1083.68555	1227.40149	958.98077	-836.50952	1066.57422	622.00378	-880.44714	994.26923	460.93918	-874.17780	972.68689	274.10504	-901.15985	902.59741	72.85095	-942.57324	924.62994	27.32367	-910.51160	748.12067	79.99356	-1163.48267	1165.91235	638.56036	-1129.98499	1192.33313	459.84027	-1133.21973	1283.28125	288.92410	-1086.08423	1364.62708	86.53916	-1035.67480	1413.22913	62.60864	-1076.26917	1230.42712	30.01443	-958.01825	1087.13647	1665.22534																		 
